<?xml version="1.0" encoding="UTF-8"?><svg id="Layer_1" xmlns="http://www.w3.org/2000/svg" xmlns:xlink="http://www.w3.org/1999/xlink" viewBox="0 0 223.19 131.54"><defs><style>.cls-1{fill:url(#linear-gradient-2);}.cls-2{fill:url(#linear-gradient-6);}.cls-3{fill:#00adee;}.cls-4{fill:url(#linear-gradient-5);}.cls-5{fill:url(#linear-gradient-3);}.cls-6{fill:#262261;}.cls-7{fill:url(#linear-gradient);}.cls-8{fill:url(#linear-gradient-4);}</style><linearGradient id="linear-gradient" x1="28.52" y1="70.88" x2="89.27" y2="70.88" gradientTransform="matrix(1, 0, 0, 1, 0, 0)" gradientUnits="userSpaceOnUse"><stop offset="0" stop-color="#d0d2d3"/><stop offset=".62" stop-color="#00adee"/><stop offset="1" stop-color="#262261"/></linearGradient><linearGradient id="linear-gradient-2" x1="37.82" y1="22.6" x2="142.85" y2="22.6" gradientTransform="matrix(1, 0, 0, 1, 0, 0)" gradientUnits="userSpaceOnUse"><stop offset="0" stop-color="#d0d2d3"/><stop offset=".49" stop-color="#00adee"/><stop offset=".91" stop-color="#262261"/></linearGradient><linearGradient id="linear-gradient-3" x1="31.47" y1="107.23" x2="143.65" y2="107.23" gradientTransform="matrix(1, 0, 0, 1, 0, 0)" gradientUnits="userSpaceOnUse"><stop offset="0" stop-color="#d0d2d3"/><stop offset=".2" stop-color="#00adee"/><stop offset=".91" stop-color="#262261"/></linearGradient><linearGradient id="linear-gradient-4" x1="9.83" y1="46.15" x2="77.43" y2="46.15" gradientTransform="matrix(1, 0, 0, 1, 0, 0)" gradientUnits="userSpaceOnUse"><stop offset=".03" stop-color="#262261"/><stop offset=".43" stop-color="#00adee"/><stop offset="1" stop-color="#0cafec"/><stop offset="1" stop-color="#d0d2d3"/></linearGradient><linearGradient id="linear-gradient-5" x1="216.73" y1="62.32" x2="221.8" y2="62.32" gradientTransform="matrix(1, 0, 0, 1, 0, 0)" gradientUnits="userSpaceOnUse"><stop offset=".14" stop-color="#262261"/><stop offset=".78" stop-color="#00adee"/><stop offset="1" stop-color="#0cafec"/><stop offset="1" stop-color="#d0d2d3"/></linearGradient><linearGradient id="linear-gradient-6" x1="219.26" y1="56.65" x2="222.7" y2="56.65" xlink:href="#linear-gradient-5"/></defs><path class="cls-7" d="M89.27,29.81c-26.09,2.08-37.43,20.36-39.45,48.88-.16,12.68,3.89,24.6,10.8,36.02-23.37-12.95-35.28-32.21-31.39-60.2,15.7-23.97,37.85-32.38,60.03-24.7Z"/><path class="cls-1" d="M37.82,33.07c16.19-5.85,33.79-7.21,53.17-2.92l25.04,12.01c12.39,5.24,20.73,3.72,24.87-4.8,4.44-12.05,1.37-21.46-9.95-27.96C90.42-9.48,60.26,.91,37.82,33.07Z"/><path class="cls-5" d="M124.09,105.45c6.29-5.19,11.57-6.64,15.78-4.12,4.47,3.65,5.59,8.16,0,14.41-17.8,15.2-40.19,19.17-66.72,13.03-21.05-7.05-33.58-23.9-41.68-45.85,10.53,17.3,22.18,29.47,35.68,33.16,20.45,4.72,39.31,.49,56.94-10.63Z"/><path class="cls-8" d="M12.95,49.19c-4.57,6.92-3.74,11.58,0,14.92,4.05,2.12,6.91,.82,12.18-4.63,12.57-18.1,30.94-27.12,52.3-31.45-23.13-2.2-45.73-1.39-64.48,21.16Z"/><circle class="cls-6" cx="5.94" cy="71.59" r="5.94"/><circle class="cls-4" cx="219.26" cy="62.32" r="2.54"/><circle class="cls-2" cx="220.98" cy="56.65" r="1.72"/><path class="cls-6" d="M112.2,103.22c-8.83,2.59-22.92-13.46-25.6-30.46,20.94-8.55,23.45-33.47,2.68-36.44-4.65-.1-9.7,1.08-15.57,5.05-17.76,28.58-16.58,51.33,0,69.33,2.39,2.74,4.66,3.59,6.73,1.5,.89-1.31,1.26-2.9,.75-4.96-7.34-7.25-10.48-15.64-7.48-25.68,2.49-3.84,6.73-4.01,7.48,.56,1.26,13.02,7.45,20.99,17.38,25.12,2.24,.52,15.34-1.87,13.64-4.01Zm-40.37-32.89c1.58-8.24,3.69-15.51,7.1-20.37,7.51-3.64,13.46-1.81,13.46,4.49-.13,7.6-7.9,12.58-20.56,15.89Z"/><path class="cls-6" d="M94.63,74.84c5.58,12.58,12.52,21.42,20.86,25.58,9.52-1.78,20.83-9.43,20.81-17.5,.31-4.11-3.74-7.66-5.98-4.11-2.75,4.12-8.91,12.05-12.71,13.39-2.46,.38-4.04-.92-4.54-4.57,3.77-2.55,7.76-7.31,10.15-11.5,1.77-2.99-1.31-7.51-4.86-3.36-2.29,2.54-6.11,9.45-8.04,10.16-4.15,1.53-8.56-5.68-7.29-6.61,6.97-5.18,12.13-10.32,15.51-20,2.66-9.59-4.64-11.05-7.78-4.51-3.51,12.05-7.7,16.66-16.14,23.04Z"/><path class="cls-6" d="M200.85,85.26c-6.28,1.84-16.29-9.56-18.2-21.65,14.88-6.08,16.67-23.79,1.9-25.9-5.15-.6-18.25,1.26-20.23,4.7-.29,19.47-4.05,33.73,7.74,46.53,1.7,1.95,4.73,4.19,6.2,2.7,.63-.93,.9-2.06,.53-3.53-5.21-5.16-7.45-11.12-5.31-18.26,1.77-2.73,4.78-2.85,5.31,.4,.9,9.25,5.3,14.92,12.35,17.86,1.59,.37,10.9-1.33,9.7-2.85Zm-28.7-23.38c0-4.93-.68-10.62,1.75-14.07,5.33-2.59,12.86-1.69,12.86,2.78-.09,5.4-5.62,8.94-14.61,11.29Z"/><path class="cls-6" d="M188.36,65.08c3.97,8.94,8.9,15.22,14.83,18.18,6.77-1.27,14.81-6.71,14.79-12.44,.22-2.92-2.66-5.45-4.25-2.92-1.95,2.93-6.34,8.57-9.03,9.51-1.75,.27-2.87-.65-3.23-3.25,2.68-1.81,5.51-5.2,7.21-8.18,1.26-2.13-.93-5.34-3.45-2.39-1.63,1.81-4.34,6.72-5.71,7.22-2.95,1.09-6.08-4.04-5.18-4.7,4.95-3.68,8.63-7.34,11.03-14.21,1.89-6.81-3.3-7.86-5.53-3.21-2.49,8.56-5.47,11.84-11.47,16.37Z"/><path class="cls-6" d="M161.81,87.1l-4.2-37.14c-1.23-9.33-5.45-11.69-12.33-7.85-7.55,5.99-17.57,21.49-17.75,29.48,.67,3.28,2.14,3.19,3.99,1.54,3.54-4.39,7.1-7.62,8.15-6.54s7.1,4.26,11.59,2.24c2.63,10.07,.87,12.73,0,19.25,1.22,8.48,11.26,5.21,10.55-.99Zm-11.3-26.49c-3.11,2.71-6.23,2.24-9.34-1.39,1.26-3.27,5.23-8.14,5.23-8.14,0,0,1.96-2.49,2.62-1.87,1.7,3.77,1.98,7.58,1.5,11.4Z"/><g><path class="cls-3" d="M148.96,99.78v2.96c.54-.7,1.19-1.05,1.95-1.05,.65,0,1.21,.24,1.68,.71,.46,.47,.7,1.05,.7,1.74s-.24,1.28-.71,1.77-1.03,.72-1.67,.72c-.78,0-1.43-.35-1.95-1.05v.88h-1.05c-.11,0-.18-.02-.23-.06-.05-.04-.07-.1-.07-.16s.02-.12,.07-.16c.05-.04,.12-.06,.23-.06h.6v-5.78h-.6c-.11,0-.18-.02-.23-.06-.05-.04-.07-.1-.07-.16s.02-.12,.07-.16c.05-.04,.12-.06,.23-.06h1.05Zm3.88,4.38c0-.56-.19-1.04-.58-1.43-.39-.39-.84-.59-1.36-.59s-.97,.2-1.36,.59c-.39,.39-.58,.87-.58,1.43s.19,1.04,.58,1.43c.39,.39,.84,.59,1.36,.59s.97-.2,1.36-.59c.39-.39,.58-.87,.58-1.43Z"/><path class="cls-3" d="M159.6,104.25h-4.55c.08,.58,.32,1.04,.73,1.4,.41,.35,.91,.53,1.51,.53,.33,0,.68-.05,1.05-.17,.37-.11,.66-.25,.89-.44,.07-.05,.12-.08,.17-.08,.06,0,.11,.02,.15,.07,.04,.04,.06,.1,.06,.16s-.03,.12-.08,.18c-.17,.18-.47,.34-.91,.5-.43,.15-.88,.23-1.34,.23-.77,0-1.41-.25-1.92-.75-.51-.5-.77-1.11-.77-1.82,0-.65,.24-1.21,.72-1.67,.48-.46,1.08-.7,1.78-.7s1.33,.24,1.8,.71c.47,.48,.7,1.09,.7,1.85Zm-.45-.45c-.09-.49-.32-.89-.7-1.2-.38-.31-.83-.46-1.35-.46s-.97,.15-1.35,.46-.61,.71-.7,1.21h4.09Z"/><path class="cls-3" d="M163.75,106.45l-2.07-4.15h-.13c-.11,0-.18-.02-.23-.06-.05-.04-.07-.1-.07-.16,0-.05,.01-.09,.04-.12,.02-.04,.05-.06,.09-.08,.04-.02,.09-.02,.17-.02h1.22c.11,0,.18,.02,.23,.06,.05,.04,.07,.1,.07,.16s-.02,.12-.07,.16c-.05,.04-.12,.06-.23,.06h-.6l1.82,3.66,1.8-3.66h-.6c-.11,0-.18-.02-.23-.06-.05-.04-.07-.1-.07-.17,0-.06,.02-.12,.07-.16,.05-.04,.12-.06,.23-.06h1.22c.11,0,.19,.02,.23,.06,.05,.04,.07,.1,.07,.16,0,.05-.01,.09-.04,.13s-.06,.06-.1,.08c-.04,.01-.13,.02-.3,.02l-2.83,5.76h.7c.11,0,.18,.02,.23,.06s.07,.09,.07,.16-.02,.12-.07,.16c-.05,.04-.12,.06-.23,.06h-2.57c-.11,0-.18-.02-.23-.06-.05-.04-.07-.09-.07-.16s.02-.12,.07-.16,.12-.06,.23-.06h1.4l.79-1.61Z"/><path class="cls-3" d="M172.75,104.16c0,.68-.24,1.26-.73,1.74s-1.08,.72-1.76,.72-1.29-.24-1.77-.73c-.49-.48-.73-1.06-.73-1.74s.24-1.26,.73-1.75c.49-.48,1.08-.73,1.77-.73s1.28,.24,1.76,.72c.49,.48,.73,1.07,.73,1.75Zm-.45,0c0-.56-.2-1.04-.6-1.43-.4-.39-.88-.59-1.45-.59s-1.05,.2-1.45,.59c-.4,.4-.6,.87-.6,1.43s.2,1.03,.6,1.42c.4,.4,.88,.6,1.45,.6s1.05-.2,1.45-.59c.4-.4,.6-.87,.6-1.43Z"/><path class="cls-3" d="M175.34,101.85v.68c.31-.32,.59-.53,.85-.65,.25-.12,.54-.18,.85-.18,.34,0,.65,.07,.93,.22,.2,.11,.38,.28,.54,.53,.16,.25,.24,.5,.24,.76v2.81h.38c.11,0,.18,.02,.23,.06,.05,.04,.07,.09,.07,.16s-.02,.12-.07,.16c-.05,.04-.12,.06-.23,.06h-1.2c-.11,0-.19-.02-.23-.06-.05-.04-.07-.1-.07-.16s.02-.12,.07-.16c.05-.04,.12-.06,.23-.06h.37v-2.74c0-.32-.12-.58-.35-.8-.23-.22-.54-.33-.93-.33-.29,0-.55,.06-.77,.18-.22,.12-.52,.41-.92,.89v2.8h.5c.11,0,.18,.02,.23,.06,.05,.04,.07,.09,.07,.16s-.02,.12-.07,.16c-.05,.04-.12,.06-.23,.06h-1.46c-.11,0-.18-.02-.23-.06-.05-.04-.07-.1-.07-.16s.02-.12,.07-.16c.05-.04,.12-.06,.23-.06h.5v-3.71h-.38c-.11,0-.18-.02-.23-.06-.05-.04-.07-.1-.07-.17,0-.06,.02-.12,.07-.16,.05-.04,.12-.06,.23-.06h.82Z"/><path class="cls-3" d="M185.51,99.78v6.23h.6c.11,0,.19,.02,.23,.06,.05,.04,.07,.09,.07,.16s-.02,.12-.07,.16c-.05,.04-.12,.06-.23,.06h-1.05v-.89c-.52,.71-1.17,1.06-1.97,1.06-.4,0-.79-.11-1.16-.32-.37-.21-.66-.52-.88-.92-.21-.4-.32-.81-.32-1.23s.11-.84,.32-1.23c.21-.39,.51-.7,.88-.92,.37-.22,.76-.32,1.17-.32,.78,0,1.44,.35,1.97,1.06v-2.52h-.6c-.11,0-.19-.02-.23-.06-.05-.04-.07-.1-.07-.16s.02-.12,.07-.16c.05-.04,.12-.06,.23-.06h1.05Zm-.45,4.38c0-.57-.19-1.05-.57-1.44-.38-.39-.84-.58-1.37-.58s-.99,.19-1.37,.58c-.38,.39-.57,.87-.57,1.44s.19,1.04,.57,1.43c.38,.39,.84,.59,1.37,.59s.98-.2,1.37-.59c.38-.39,.57-.87,.57-1.43Z"/><path class="cls-3" d="M150.88,111.85v4.16h1.75c.11,0,.19,.02,.23,.06,.05,.04,.07,.09,.07,.16s-.02,.12-.07,.16c-.05,.04-.12,.06-.23,.06h-3.96c-.11,0-.18-.02-.23-.06-.05-.04-.07-.1-.07-.16s.02-.12,.07-.16c.05-.04,.12-.06,.23-.06h1.75v-3.71h-1.3c-.11,0-.18-.02-.23-.06-.05-.04-.07-.1-.07-.16s.02-.12,.07-.16c.05-.04,.12-.06,.23-.06h1.75Zm-.02-2.29v1.15h-.66v-1.15h.66Z"/><path class="cls-3" d="M155.15,111.85v.45c.38-.41,.76-.61,1.14-.61,.23,0,.43,.06,.61,.18,.17,.12,.32,.31,.44,.56,.2-.25,.4-.43,.6-.56,.2-.12,.41-.18,.61-.18,.32,0,.58,.1,.77,.31,.25,.27,.38,.56,.38,.88v3.12h.38c.11,0,.18,.02,.23,.06,.05,.04,.07,.09,.07,.16s-.02,.12-.07,.16c-.05,.04-.12,.06-.23,.06h-.82v-3.53c0-.23-.07-.42-.21-.56-.14-.15-.3-.22-.48-.22-.16,0-.33,.06-.52,.18-.18,.12-.39,.36-.62,.72v2.96h.37c.11,0,.18,.02,.23,.06,.05,.04,.07,.09,.07,.16s-.02,.12-.07,.16c-.05,.04-.12,.06-.23,.06h-.82v-3.49c0-.24-.07-.43-.21-.59-.14-.15-.3-.23-.47-.23-.16,0-.32,.05-.47,.15-.22,.15-.44,.39-.68,.75v2.96h.38c.11,0,.18,.02,.23,.06,.05,.04,.07,.09,.07,.16s-.02,.12-.07,.16c-.05,.04-.12,.06-.23,.06h-1.2c-.11,0-.18-.02-.23-.06-.05-.04-.07-.1-.07-.16s.02-.12,.07-.16c.05-.04,.12-.06,.23-.06h.38v-3.71h-.38c-.11,0-.18-.02-.23-.06-.05-.04-.07-.1-.07-.17,0-.06,.02-.12,.07-.16,.05-.04,.12-.06,.23-.06h.82Z"/><path class="cls-3" d="M165,116.45v-.64c-.65,.55-1.34,.82-2.08,.82-.54,0-.95-.14-1.25-.41s-.45-.6-.45-1c0-.43,.2-.81,.6-1.13,.4-.32,.98-.48,1.74-.48,.21,0,.43,.01,.67,.04,.24,.03,.5,.07,.78,.12v-.72c0-.25-.11-.46-.34-.64-.23-.18-.57-.27-1.02-.27-.35,0-.83,.1-1.46,.3-.11,.04-.19,.05-.22,.05-.06,0-.11-.02-.15-.06-.04-.04-.06-.1-.06-.16s.02-.11,.05-.14c.05-.05,.25-.13,.6-.22,.55-.15,.97-.22,1.25-.22,.56,0,1,.14,1.32,.42,.32,.28,.47,.59,.47,.94v2.96h.6c.11,0,.19,.02,.23,.06,.05,.04,.07,.09,.07,.16s-.02,.12-.07,.16c-.05,.04-.12,.06-.23,.06h-1.05Zm0-2.22c-.21-.06-.43-.1-.66-.13-.23-.03-.48-.04-.74-.04-.65,0-1.16,.14-1.52,.42-.28,.21-.41,.46-.41,.75,0,.27,.11,.5,.32,.68s.52,.28,.92,.28,.75-.08,1.08-.23,.67-.4,1.02-.74v-.98Z"/><path class="cls-3" d="M171.75,112.67v-.82h1.05c.11,0,.18,.02,.23,.06,.05,.04,.07,.1,.07,.16s-.02,.12-.07,.16c-.05,.04-.12,.06-.23,.06h-.6v4.46c0,.3-.06,.56-.19,.8-.08,.16-.23,.32-.43,.48-.2,.17-.38,.29-.54,.36s-.38,.11-.65,.11h-1.27c-.11,0-.18-.02-.23-.06-.05-.04-.07-.09-.07-.16s.02-.12,.07-.17c.05-.04,.12-.06,.23-.06h1.28c.26,0,.5-.06,.71-.2s.39-.33,.52-.59c.08-.15,.12-.34,.12-.57v-1.34c-.48,.66-1.1,.98-1.85,.98-.61,0-1.14-.23-1.59-.68-.45-.46-.67-1-.67-1.65s.22-1.19,.67-1.64,.97-.68,1.59-.68c.75,0,1.37,.33,1.85,.98Zm0,1.35c0-.53-.18-.97-.54-1.33-.36-.36-.79-.54-1.29-.54s-.93,.18-1.29,.54c-.36,.36-.54,.81-.54,1.33s.18,.97,.54,1.33c.36,.36,.79,.54,1.29,.54s.93-.18,1.29-.54c.36-.36,.54-.81,.54-1.33Z"/><path class="cls-3" d="M177.02,111.85v4.16h1.75c.11,0,.19,.02,.23,.06,.05,.04,.07,.09,.07,.16s-.02,.12-.07,.16c-.05,.04-.12,.06-.23,.06h-3.96c-.11,0-.18-.02-.23-.06-.05-.04-.07-.1-.07-.16s.02-.12,.07-.16c.05-.04,.12-.06,.23-.06h1.75v-3.71h-1.3c-.11,0-.18-.02-.23-.06-.05-.04-.07-.1-.07-.16s.02-.12,.07-.16c.05-.04,.12-.06,.23-.06h1.75Zm-.02-2.29v1.15h-.66v-1.15h.66Z"/><path class="cls-3" d="M181.88,111.85v.68c.31-.32,.59-.53,.85-.65,.25-.12,.54-.18,.85-.18,.34,0,.65,.07,.93,.22,.2,.11,.38,.28,.54,.53,.16,.25,.24,.5,.24,.76v2.81h.38c.11,0,.18,.02,.23,.06,.05,.04,.07,.09,.07,.16s-.02,.12-.07,.16c-.05,.04-.12,.06-.23,.06h-1.2c-.11,0-.19-.02-.23-.06-.05-.04-.07-.1-.07-.16s.02-.12,.07-.16c.05-.04,.12-.06,.23-.06h.37v-2.74c0-.32-.12-.58-.35-.8-.23-.22-.54-.33-.93-.33-.29,0-.55,.06-.77,.18-.22,.12-.52,.41-.92,.89v2.8h.5c.11,0,.18,.02,.23,.06,.05,.04,.07,.09,.07,.16s-.02,.12-.07,.16c-.05,.04-.12,.06-.23,.06h-1.46c-.11,0-.18-.02-.23-.06-.05-.04-.07-.1-.07-.16s.02-.12,.07-.16c.05-.04,.12-.06,.23-.06h.5v-3.71h-.38c-.11,0-.18-.02-.23-.06-.05-.04-.07-.1-.07-.17,0-.06,.02-.12,.07-.16,.05-.04,.12-.06,.23-.06h.82Z"/><path class="cls-3" d="M191.14,116.45v-.64c-.65,.55-1.34,.82-2.08,.82-.54,0-.95-.14-1.25-.41s-.45-.6-.45-1c0-.43,.2-.81,.6-1.13,.4-.32,.98-.48,1.74-.48,.21,0,.43,.01,.67,.04,.24,.03,.5,.07,.78,.12v-.72c0-.25-.11-.46-.34-.64-.23-.18-.57-.27-1.02-.27-.35,0-.83,.1-1.46,.3-.11,.04-.19,.05-.22,.05-.06,0-.11-.02-.15-.06-.04-.04-.06-.1-.06-.16s.02-.11,.05-.14c.05-.05,.25-.13,.6-.22,.55-.15,.97-.22,1.25-.22,.56,0,1,.14,1.32,.42,.32,.28,.47,.59,.47,.94v2.96h.6c.11,0,.19,.02,.23,.06,.05,.04,.07,.09,.07,.16s-.02,.12-.07,.16c-.05,.04-.12,.06-.23,.06h-1.05Zm0-2.22c-.21-.06-.43-.1-.66-.13-.23-.03-.48-.04-.74-.04-.65,0-1.16,.14-1.52,.42-.28,.21-.41,.46-.41,.75,0,.27,.11,.5,.32,.68s.52,.28,.92,.28,.75-.08,1.08-.23,.67-.4,1.02-.74v-.98Z"/><path class="cls-3" d="M195.48,111.85h2.42c.11,0,.18,.02,.23,.06,.05,.04,.07,.1,.07,.16s-.02,.12-.07,.16c-.05,.04-.12,.06-.23,.06h-2.42v2.97c0,.26,.1,.48,.31,.65,.21,.17,.51,.26,.91,.26,.3,0,.63-.04,.98-.14,.35-.09,.62-.19,.82-.31,.07-.05,.13-.07,.18-.07,.06,0,.11,.02,.15,.07,.04,.04,.06,.1,.06,.16,0,.05-.02,.1-.07,.15-.11,.12-.39,.24-.83,.38-.44,.14-.86,.21-1.26,.21-.52,0-.94-.12-1.24-.37-.31-.25-.46-.57-.46-.99v-2.97h-.82c-.11,0-.18-.02-.23-.06-.05-.04-.07-.1-.07-.17,0-.06,.02-.12,.07-.16,.05-.04,.12-.06,.23-.06h.82v-1.32c0-.11,.02-.18,.06-.23,.04-.05,.1-.07,.16-.07s.12,.02,.17,.07c.04,.05,.06,.12,.06,.23v1.32Z"/><path class="cls-3" d="M203.17,111.85v4.16h1.75c.11,0,.19,.02,.23,.06,.05,.04,.07,.09,.07,.16s-.02,.12-.07,.16c-.05,.04-.12,.06-.23,.06h-3.96c-.11,0-.18-.02-.23-.06-.05-.04-.07-.1-.07-.16s.02-.12,.07-.16c.05-.04,.12-.06,.23-.06h1.75v-3.71h-1.3c-.11,0-.18-.02-.23-.06-.05-.04-.07-.1-.07-.16s.02-.12,.07-.16c.05-.04,.12-.06,.23-.06h1.75Zm-.02-2.29v1.15h-.66v-1.15h.66Z"/><path class="cls-3" d="M211.96,114.16c0,.68-.24,1.26-.73,1.74s-1.08,.72-1.76,.72-1.29-.24-1.77-.73c-.49-.48-.73-1.06-.73-1.74s.24-1.26,.73-1.75c.49-.48,1.08-.73,1.77-.73s1.28,.24,1.76,.72c.49,.48,.73,1.07,.73,1.75Zm-.45,0c0-.56-.2-1.04-.6-1.43-.4-.39-.88-.59-1.45-.59s-1.05,.2-1.45,.59c-.4,.4-.6,.87-.6,1.43s.2,1.03,.6,1.42c.4,.4,.88,.6,1.45,.6s1.05-.2,1.45-.59c.4-.4,.6-.87,.6-1.43Z"/><path class="cls-3" d="M214.56,111.85v.68c.31-.32,.59-.53,.85-.65,.25-.12,.54-.18,.85-.18,.34,0,.65,.07,.93,.22,.2,.11,.38,.28,.54,.53,.16,.25,.24,.5,.24,.76v2.81h.38c.11,0,.18,.02,.23,.06,.05,.04,.07,.09,.07,.16s-.02,.12-.07,.16c-.05,.04-.12,.06-.23,.06h-1.2c-.11,0-.19-.02-.23-.06-.05-.04-.07-.1-.07-.16s.02-.12,.07-.16c.05-.04,.12-.06,.23-.06h.37v-2.74c0-.32-.12-.58-.35-.8-.23-.22-.54-.33-.93-.33-.29,0-.55,.06-.77,.18-.22,.12-.52,.41-.92,.89v2.8h.5c.11,0,.18,.02,.23,.06,.05,.04,.07,.09,.07,.16s-.02,.12-.07,.16c-.05,.04-.12,.06-.23,.06h-1.46c-.11,0-.18-.02-.23-.06-.05-.04-.07-.1-.07-.16s.02-.12,.07-.16c.05-.04,.12-.06,.23-.06h.5v-3.71h-.38c-.11,0-.18-.02-.23-.06-.05-.04-.07-.1-.07-.17,0-.06,.02-.12,.07-.16,.05-.04,.12-.06,.23-.06h.82Z"/><path class="cls-3" d="M222.43,115.51h.21c.15,0,.28,.05,.39,.16,.11,.11,.16,.24,.16,.39s-.06,.29-.17,.39c-.11,.11-.24,.16-.39,.16h-.21c-.15,0-.28-.05-.39-.16-.11-.11-.16-.24-.16-.39,0-.16,.05-.29,.17-.4,.11-.11,.24-.16,.39-.16Zm.53-5.28l-.2,3.61c0,.11-.03,.19-.07,.24s-.09,.07-.15,.07-.12-.02-.16-.07c-.04-.05-.06-.13-.07-.24l-.2-3.61c0-.08-.01-.15-.01-.19,0-.12,.04-.22,.12-.3,.08-.08,.19-.12,.31-.12s.23,.04,.31,.12,.12,.18,.12,.31c0,.04,0,.1,0,.18Z"/></g></svg>