<svg id="Layer_1" data-name="Layer 1" xmlns="http://www.w3.org/2000/svg" xmlns:xlink="http://www.w3.org/1999/xlink" viewBox="0 0 222.7 131.53"><defs><style>.cls-1{fill:url(#linear-gradient);}.cls-2{fill:url(#linear-gradient-2);}.cls-3{fill:url(#linear-gradient-3);}.cls-4{fill:url(#linear-gradient-4);}.cls-5{fill:#262261;}.cls-6{fill:url(#linear-gradient-5);}.cls-7{fill:url(#linear-gradient-6);}</style><linearGradient id="linear-gradient" x1="28.52" y1="63.13" x2="89.27" y2="63.13" gradientTransform="matrix(1, 0, 0, -1, 0, 134)" gradientUnits="userSpaceOnUse"><stop offset="0" stop-color="#d0d2d3"/><stop offset="0.62" stop-color="#00adee"/><stop offset="1" stop-color="#262261"/></linearGradient><linearGradient id="linear-gradient-2" x1="37.82" y1="111.4" x2="142.82" y2="111.4" gradientTransform="matrix(1, 0, 0, -1, 0, 134)" gradientUnits="userSpaceOnUse"><stop offset="0" stop-color="#d0d2d3"/><stop offset="0.49" stop-color="#00adee"/><stop offset="0.91" stop-color="#262261"/></linearGradient><linearGradient id="linear-gradient-3" x1="31.47" y1="26.79" x2="143.65" y2="26.79" gradientTransform="matrix(1, 0, 0, -1, 0, 134)" gradientUnits="userSpaceOnUse"><stop offset="0" stop-color="#d0d2d3"/><stop offset="0.2" stop-color="#00adee"/><stop offset="0.91" stop-color="#262261"/></linearGradient><linearGradient id="linear-gradient-4" x1="9.88" y1="87.86" x2="77.43" y2="87.86" gradientTransform="matrix(1, 0, 0, -1, 0, 134)" gradientUnits="userSpaceOnUse"><stop offset="0.03" stop-color="#262261"/><stop offset="0.43" stop-color="#00adee"/><stop offset="1" stop-color="#0cafec"/><stop offset="1" stop-color="#d0d2d3"/></linearGradient><linearGradient id="linear-gradient-5" x1="216.73" y1="71.68" x2="221.8" y2="71.68" gradientTransform="matrix(1, 0, 0, -1, 0, 134)" gradientUnits="userSpaceOnUse"><stop offset="0.14" stop-color="#262261"/><stop offset="0.78" stop-color="#00adee"/><stop offset="1" stop-color="#0cafec"/><stop offset="1" stop-color="#d0d2d3"/></linearGradient><linearGradient id="linear-gradient-6" x1="219.26" y1="77.35" x2="222.7" y2="77.35" xlink:href="#linear-gradient-5"/></defs><path class="cls-1" d="M89.27,29.81C63.19,31.9,51.84,50.17,49.83,78.69c-.17,12.68,3.89,24.61,10.8,36-23.36-13-35.28-32.22-31.38-60.2C44.94,30.54,67.1,22.13,89.27,29.81Z" transform="translate(0 0)"/><path class="cls-2" d="M37.82,33.07C54,27.23,71.61,25.86,91,30.16l25,12c12.39,5.24,20.73,3.72,24.87-4.8,4.44-12,1.37-21.46-10-27.95C90.42-9.48,60.26.91,37.82,33.07Z" transform="translate(0 0)"/><path class="cls-3" d="M124.09,105.45c6.29-5.2,11.57-6.64,15.78-4.12,4.47,3.65,5.59,8.16,0,14.41-17.8,15.2-40.19,19.17-66.72,13-21-7-33.57-23.9-41.68-45.85,10.53,17.3,22.18,29.47,35.68,33.16C87.6,120.81,106.46,116.58,124.09,105.45Z" transform="translate(0 0)"/><path class="cls-4" d="M13,49.19c-4.57,6.93-3.73,11.58,0,14.93,4.05,2.12,6.91.82,12.18-4.64C37.7,41.38,56.07,32.37,77.43,28,54.3,25.84,31.7,26.65,13,49.19Z" transform="translate(0 0)"/><circle class="cls-5" cx="5.94" cy="71.59" r="5.94"/><circle class="cls-6" cx="219.26" cy="62.32" r="2.54"/><circle class="cls-7" cx="220.98" cy="56.65" r="1.72"/><path class="cls-5" d="M112.2,103.22c-8.84,2.59-22.93-13.45-25.61-30.46,20.94-8.55,23.45-33.47,2.68-36.44-4.65-.1-9.69,1.08-15.57,5-17.76,28.57-16.59,51.32,0,69.33,2.39,2.74,4.66,3.59,6.73,1.49a5.87,5.87,0,0,0,.74-5C73.84,100,70.7,91.59,73.7,81.55c2.49-3.84,6.73-4,7.47.56,1.27,13,7.45,21,17.38,25.12C100.79,107.75,113.89,105.36,112.2,103.22ZM71.83,70.33c1.58-8.24,3.68-15.51,7.1-20.37,7.51-3.64,13.46-1.81,13.46,4.49C92.26,62.05,84.48,67,71.83,70.33Z" transform="translate(0 0)"/><path class="cls-5" d="M94.63,74.84c5.58,12.58,12.52,21.42,20.86,25.58C125,98.64,136.32,91,136.3,82.92c.32-4.11-3.73-7.66-6-4.11-2.74,4.12-8.91,12.06-12.7,13.39-2.46.38-4-.92-4.55-4.57,3.77-2.55,7.76-7.31,10.15-11.5,1.77-3-1.31-7.52-4.86-3.37-2.29,2.54-6.1,9.45-8,10.16-4.16,1.53-8.56-5.68-7.29-6.61,7-5.18,12.13-10.32,15.51-20,2.66-9.59-4.64-11.06-7.78-4.52C107.26,63.85,103.07,68.46,94.63,74.84Z" transform="translate(0 0)"/><path class="cls-5" d="M200.85,85.26c-6.28,1.84-16.3-9.57-18.2-21.66,14.88-6.07,16.67-23.79,1.9-25.9-5.15-.6-18.25,1.26-20.22,4.7-.3,19.48-4.05,33.73,7.73,46.53,1.71,1.95,4.73,4.19,6.2,2.7a4.17,4.17,0,0,0,.54-3.53c-5.22-5.1-7.45-11.1-5.32-18.25,1.77-2.73,4.78-2.85,5.32.4.89,9.25,5.29,14.92,12.35,17.85C192.74,88.47,202.05,86.78,200.85,85.26Zm-28.7-23.38c0-4.93-.68-10.62,1.75-14.08,5.34-2.58,12.87-1.69,12.87,2.79-.09,5.41-5.62,8.94-14.62,11.29Z" transform="translate(0 0)"/><path class="cls-5" d="M188.36,65.08c4,8.94,8.9,15.22,14.83,18.18C210,82,218,76.56,218,70.83c.22-2.92-2.65-5.45-4.25-2.93-1.95,2.93-6.33,8.57-9,9.52-1.75.27-2.87-.65-3.23-3.25A26.47,26.47,0,0,0,208.68,66c1.26-2.12-.93-5.34-3.45-2.39-1.63,1.81-4.34,6.72-5.71,7.23-3,1.08-6.08-4-5.18-4.7,4.95-3.68,8.62-7.34,11-14.22,1.9-6.81-3.29-7.85-5.53-3.2C197.34,57.27,194.36,60.55,188.36,65.08Z" transform="translate(0 0)"/><path class="cls-5" d="M161.81,87.1,157.61,50c-1.23-9.32-5.45-11.68-12.34-7.85-7.55,6-17.56,21.49-17.75,29.48.67,3.28,2.14,3.19,4,1.55,3.53-4.39,7.1-7.63,8.15-6.55s7.1,4.26,11.59,2.25c2.63,10.07.87,12.73,0,19.25C152.48,96.56,162.52,93.3,161.81,87.1Zm-11.3-26.49q-4.68,4.06-9.35-1.39c1.27-3.27,5.24-8.14,5.24-8.14s1.95-2.48,2.61-1.87A20.63,20.63,0,0,1,150.51,60.61Z" transform="translate(0 0)"/></svg>